<svg xmlns="http://www.w3.org/2000/svg" xmlns:xlink="http://www.w3.org/1999/xlink" width="1920" zoomAndPan="magnify" viewBox="0 0 1440 809.999993" height="1080" preserveAspectRatio="xMidYMid meet" version="1.0"><defs><filter x="0%" y="0%" width="100%" height="100%" id="dd451bd56b"><feColorMatrix values="0 0 0 0 1 0 0 0 0 1 0 0 0 0 1 0 0 0 1 0" color-interpolation-filters="sRGB"/></filter><mask id="14bbda121e"><g filter="url(#dd451bd56b)"><rect x="-144" width="1728" fill="#000000" y="-80.999999" height="971.999992" fill-opacity="0.35"/></g></mask><clipPath id="3fed05d179"><path d="M 0 0.199219 L 498.453125 0.199219 L 498.453125 459 L 0 459 Z M 0 0.199219 " clip-rule="nonzero"/></clipPath><clipPath id="79063c668e"><path d="M 498.417969 0.199219 L 1019.667969 0.199219 L 1019.667969 459 L 498.417969 459 Z M 498.417969 0.199219 " clip-rule="nonzero"/></clipPath><clipPath id="05e1e33307"><path d="M 1019.632812 0.199219 L 1440 0.199219 L 1440 459 L 1019.632812 459 Z M 1019.632812 0.199219 " clip-rule="nonzero"/></clipPath><clipPath id="ec7e461183"><rect x="0" width="1440" y="0" height="460"/></clipPath><mask id="06a3b34a1e"><g filter="url(#dd451bd56b)"><rect x="-144" width="1728" fill="#000000" y="-80.999999" height="971.999992" fill-opacity="0.35"/></g></mask><clipPath id="263f2ec52b"><path d="M 0 0.839844 L 478.871094 0.839844 L 478.871094 351 L 0 351 Z M 0 0.839844 " clip-rule="nonzero"/></clipPath><clipPath id="6d6fdc7125"><path d="M 478.839844 0.839844 L 1000.089844 0.839844 L 1000.089844 351 L 478.839844 351 Z M 478.839844 0.839844 " clip-rule="nonzero"/></clipPath><clipPath id="0eed8d99c9"><path d="M 1000.054688 0.839844 L 1440 0.839844 L 1440 351 L 1000.054688 351 Z M 1000.054688 0.839844 " clip-rule="nonzero"/></clipPath><clipPath id="fd76000f01"><rect x="0" width="1440" y="0" height="351"/></clipPath></defs><rect x="-144" width="1728" fill="#ffffff" y="-80.999999" height="971.999992" fill-opacity="1"/><rect x="-144" width="1728" fill="#202124" y="-80.999999" height="971.999992" fill-opacity="1"/><g mask="url(#14bbda121e)"><g transform="matrix(1, 0, 0, 1, 0, 1)"><g clip-path="url(#ec7e461183)"><g clip-path="url(#3fed05d179)"><path fill="#f1f3f4" d="M 498.417969 1.816406 L -22.796875 1.816406 L -22.796875 0.207031 L 498.417969 0.207031 Z M 498.417969 65.386719 L -22.796875 65.386719 L -22.796875 66.996094 L 498.417969 66.996094 Z M 498.417969 130.761719 L -22.796875 130.761719 L -22.796875 132.371094 L 498.417969 132.371094 Z M 498.417969 195.941406 L -22.796875 195.941406 L -22.796875 197.550781 L 498.417969 197.550781 Z M 498.417969 261.117188 L -22.796875 261.117188 L -22.796875 262.726562 L 498.417969 262.726562 Z M 498.417969 326.496094 L -22.796875 326.496094 L -22.796875 328.105469 L 498.417969 328.105469 Z M 498.417969 391.671875 L -22.796875 391.671875 L -22.796875 393.28125 L 498.417969 393.28125 Z M 498.417969 457.050781 L -22.796875 457.050781 L -22.796875 458.660156 L 498.417969 458.660156 Z M 498.417969 457.050781 " fill-opacity="1" fill-rule="nonzero"/></g><g clip-path="url(#79063c668e)"><path fill="#f1f3f4" d="M 1019.632812 1.816406 L 498.417969 1.816406 L 498.417969 0.207031 L 1019.632812 0.207031 Z M 1019.632812 65.386719 L 498.417969 65.386719 L 498.417969 66.996094 L 1019.632812 66.996094 Z M 1019.632812 130.761719 L 498.417969 130.761719 L 498.417969 132.371094 L 1019.632812 132.371094 Z M 1019.632812 195.941406 L 498.417969 195.941406 L 498.417969 197.550781 L 1019.632812 197.550781 Z M 1019.632812 261.117188 L 498.417969 261.117188 L 498.417969 262.726562 L 1019.632812 262.726562 Z M 1019.632812 326.496094 L 498.417969 326.496094 L 498.417969 328.105469 L 1019.632812 328.105469 Z M 1019.632812 391.671875 L 498.417969 391.671875 L 498.417969 393.28125 L 1019.632812 393.28125 Z M 1019.632812 457.050781 L 498.417969 457.050781 L 498.417969 458.660156 L 1019.632812 458.660156 Z M 1019.632812 457.050781 " fill-opacity="1" fill-rule="nonzero"/></g><g clip-path="url(#05e1e33307)"><path fill="#f1f3f4" d="M 1540.847656 1.816406 L 1019.632812 1.816406 L 1019.632812 0.207031 L 1540.847656 0.207031 Z M 1540.847656 65.386719 L 1019.632812 65.386719 L 1019.632812 66.996094 L 1540.847656 66.996094 Z M 1540.847656 130.761719 L 1019.632812 130.761719 L 1019.632812 132.371094 L 1540.847656 132.371094 Z M 1540.847656 195.941406 L 1019.632812 195.941406 L 1019.632812 197.550781 L 1540.847656 197.550781 Z M 1540.847656 261.117188 L 1019.632812 261.117188 L 1019.632812 262.726562 L 1540.847656 262.726562 Z M 1540.847656 326.496094 L 1019.632812 326.496094 L 1019.632812 328.105469 L 1540.847656 328.105469 Z M 1540.847656 391.671875 L 1019.632812 391.671875 L 1019.632812 393.28125 L 1540.847656 393.28125 Z M 1540.847656 457.050781 L 1019.632812 457.050781 L 1019.632812 458.660156 L 1540.847656 458.660156 Z M 1540.847656 457.050781 " fill-opacity="1" fill-rule="nonzero"/></g></g></g></g><g mask="url(#06a3b34a1e)"><g transform="matrix(1, 0, 0, 1, 0, 459)"><g clip-path="url(#fd76000f01)"><g clip-path="url(#263f2ec52b)"><path fill="#f1f3f4" d="M 478.835938 2.488281 L -42.378906 2.488281 L -42.378906 0.878906 L 478.835938 0.878906 Z M 478.835938 66.054688 L -42.378906 66.054688 L -42.378906 67.664062 L 478.835938 67.664062 Z M 478.835938 131.433594 L -42.378906 131.433594 L -42.378906 133.042969 L 478.835938 133.042969 Z M 478.835938 196.609375 L -42.378906 196.609375 L -42.378906 198.21875 L 478.835938 198.21875 Z M 478.835938 261.785156 L -42.378906 261.785156 L -42.378906 263.394531 L 478.835938 263.394531 Z M 478.835938 327.164062 L -42.378906 327.164062 L -42.378906 328.773438 L 478.835938 328.773438 Z M 478.835938 392.339844 L -42.378906 392.339844 L -42.378906 393.949219 L 478.835938 393.949219 Z M 478.835938 457.71875 L -42.378906 457.71875 L -42.378906 459.328125 L 478.835938 459.328125 Z M 478.835938 457.71875 " fill-opacity="1" fill-rule="nonzero"/></g><g clip-path="url(#6d6fdc7125)"><path fill="#f1f3f4" d="M 1000.054688 2.488281 L 478.839844 2.488281 L 478.839844 0.878906 L 1000.054688 0.878906 Z M 1000.054688 66.054688 L 478.839844 66.054688 L 478.839844 67.664062 L 1000.054688 67.664062 Z M 1000.054688 131.433594 L 478.839844 131.433594 L 478.839844 133.042969 L 1000.054688 133.042969 Z M 1000.054688 196.609375 L 478.839844 196.609375 L 478.839844 198.21875 L 1000.054688 198.21875 Z M 1000.054688 261.785156 L 478.839844 261.785156 L 478.839844 263.394531 L 1000.054688 263.394531 Z M 1000.054688 327.164062 L 478.839844 327.164062 L 478.839844 328.773438 L 1000.054688 328.773438 Z M 1000.054688 392.339844 L 478.839844 392.339844 L 478.839844 393.949219 L 1000.054688 393.949219 Z M 1000.054688 457.71875 L 478.839844 457.71875 L 478.839844 459.328125 L 1000.054688 459.328125 Z M 1000.054688 457.71875 " fill-opacity="1" fill-rule="nonzero"/></g><g clip-path="url(#0eed8d99c9)"><path fill="#f1f3f4" d="M 1521.269531 2.488281 L 1000.054688 2.488281 L 1000.054688 0.878906 L 1521.269531 0.878906 Z M 1521.269531 66.054688 L 1000.054688 66.054688 L 1000.054688 67.664062 L 1521.269531 67.664062 Z M 1521.269531 131.433594 L 1000.054688 131.433594 L 1000.054688 133.042969 L 1521.269531 133.042969 Z M 1521.269531 196.609375 L 1000.054688 196.609375 L 1000.054688 198.21875 L 1521.269531 198.21875 Z M 1521.269531 261.785156 L 1000.054688 261.785156 L 1000.054688 263.394531 L 1521.269531 263.394531 Z M 1521.269531 327.164062 L 1000.054688 327.164062 L 1000.054688 328.773438 L 1521.269531 328.773438 Z M 1521.269531 392.339844 L 1000.054688 392.339844 L 1000.054688 393.949219 L 1521.269531 393.949219 Z M 1521.269531 457.71875 L 1000.054688 457.71875 L 1000.054688 459.328125 L 1521.269531 459.328125 Z M 1521.269531 457.71875 " fill-opacity="1" fill-rule="nonzero"/></g></g></g></g></svg>