<svg xmlns="http://www.w3.org/2000/svg" xmlns:xlink="http://www.w3.org/1999/xlink" width="1920" zoomAndPan="magnify" viewBox="0 0 1440 809.999993" height="1080" preserveAspectRatio="xMidYMid meet" version="1.0"><defs><filter x="0%" y="0%" width="100%" height="100%" id="bd263d5d77"><feColorMatrix values="0 0 0 0 1 0 0 0 0 1 0 0 0 0 1 0 0 0 1 0" color-interpolation-filters="sRGB"/></filter><mask id="6ae9acf364"><g filter="url(#bd263d5d77)"><rect x="-144" width="1728" fill="#000000" y="-80.999999" height="971.999992" fill-opacity="0.35"/></g></mask><clipPath id="9fc1255a2f"><path d="M 0 0 L 1440 0 L 1440 418.320312 L 0 418.320312 Z M 0 0 " clip-rule="nonzero"/></clipPath><clipPath id="1c8f8904b9"><path d="M 0 0 L 480.03125 0 L 480.03125 418.234375 L 0 418.234375 Z M 0 0 " clip-rule="nonzero"/></clipPath><clipPath id="642e8307ff"><path d="M 480 0 L 960.03125 0 L 960.03125 418.234375 L 480 418.234375 Z M 480 0 " clip-rule="nonzero"/></clipPath><clipPath id="e9037311a1"><path d="M 960 0 L 1440 0 L 1440 418.234375 L 960 418.234375 Z M 960 0 " clip-rule="nonzero"/></clipPath><clipPath id="d13e294d20"><rect x="0" width="1440" y="0" height="419"/></clipPath><clipPath id="ab3d59e342"><rect x="0" width="1440" y="0" height="419"/></clipPath><mask id="0cdc82aebc"><g filter="url(#bd263d5d77)"><rect x="-144" width="1728" fill="#000000" y="-80.999999" height="971.999992" fill-opacity="0.35"/></g></mask><clipPath id="07fb157c3b"><path d="M 0 0.839844 L 1440 0.839844 L 1440 393 L 0 393 Z M 0 0.839844 " clip-rule="nonzero"/></clipPath><clipPath id="be13a0e144"><path d="M 0 1 L 480.03125 1 L 480.03125 393 L 0 393 Z M 0 1 " clip-rule="nonzero"/></clipPath><clipPath id="92d622e128"><path d="M 480 1 L 960.03125 1 L 960.03125 393 L 480 393 Z M 480 1 " clip-rule="nonzero"/></clipPath><clipPath id="405efb984c"><path d="M 960 1 L 1440 1 L 1440 393 L 960 393 Z M 960 1 " clip-rule="nonzero"/></clipPath><clipPath id="1a190b3cf4"><rect x="0" width="1440" y="0" height="393"/></clipPath><clipPath id="927bba38ff"><rect x="0" width="1440" y="0" height="393"/></clipPath></defs><rect x="-144" width="1728" fill="#ffffff" y="-80.999999" height="971.999992" fill-opacity="1"/><rect x="-144" width="1728" fill="#f1f3f4" y="-80.999999" height="971.999992" fill-opacity="1"/><g mask="url(#6ae9acf364)"><g transform="matrix(1, 0, 0, 1, 0, 0.000000000000039746)"><g clip-path="url(#ab3d59e342)"><g clip-path="url(#9fc1255a2f)"><g transform="matrix(1, 0, 0, 1, 0, 0.000000000000039746)"><g clip-path="url(#d13e294d20)"><g clip-path="url(#1c8f8904b9)"><path fill="#221f1f" d="M 480.03125 -2.886719 L 0 -2.886719 L 0 -4.371094 L 480.03125 -4.371094 Z M 480.03125 55.699219 L 0 55.699219 L 0 57.179688 L 480.03125 57.179688 Z M 480.03125 115.949219 L 0 115.949219 L 0 117.433594 L 480.03125 117.433594 Z M 480.03125 176.019531 L 0 176.019531 L 0 177.5 L 480.03125 177.5 Z M 480.03125 236.085938 L 0 236.085938 L 0 237.570312 L 480.03125 237.570312 Z M 480.03125 296.339844 L 0 296.339844 L 0 297.820312 L 480.03125 297.820312 Z M 480.03125 356.40625 L 0 356.40625 L 0 357.890625 L 480.03125 357.890625 Z M 480.03125 416.660156 L 0 416.660156 L 0 418.140625 L 480.03125 418.140625 Z M 480.03125 416.660156 " fill-opacity="1" fill-rule="nonzero"/></g><g clip-path="url(#642e8307ff)"><path fill="#221f1f" d="M 960.03125 -2.886719 L 480 -2.886719 L 480 -4.371094 L 960.03125 -4.371094 Z M 960.03125 55.699219 L 480 55.699219 L 480 57.179688 L 960.03125 57.179688 Z M 960.03125 115.949219 L 480 115.949219 L 480 117.433594 L 960.03125 117.433594 Z M 960.03125 176.019531 L 480 176.019531 L 480 177.5 L 960.03125 177.5 Z M 960.03125 236.085938 L 480 236.085938 L 480 237.570312 L 960.03125 237.570312 Z M 960.03125 296.339844 L 480 296.339844 L 480 297.820312 L 960.03125 297.820312 Z M 960.03125 356.40625 L 480 356.40625 L 480 357.890625 L 960.03125 357.890625 Z M 960.03125 416.660156 L 480 416.660156 L 480 418.140625 L 960.03125 418.140625 Z M 960.03125 416.660156 " fill-opacity="1" fill-rule="nonzero"/></g><g clip-path="url(#e9037311a1)"><path fill="#221f1f" d="M 1440.03125 -2.886719 L 960 -2.886719 L 960 -4.371094 L 1440.03125 -4.371094 Z M 1440.03125 55.699219 L 960 55.699219 L 960 57.179688 L 1440.03125 57.179688 Z M 1440.03125 115.949219 L 960 115.949219 L 960 117.433594 L 1440.03125 117.433594 Z M 1440.03125 176.019531 L 960 176.019531 L 960 177.5 L 1440.03125 177.5 Z M 1440.03125 236.085938 L 960 236.085938 L 960 237.570312 L 1440.03125 237.570312 Z M 1440.03125 296.339844 L 960 296.339844 L 960 297.820312 L 1440.03125 297.820312 Z M 1440.03125 356.40625 L 960 356.40625 L 960 357.890625 L 1440.03125 357.890625 Z M 1440.03125 416.660156 L 960 416.660156 L 960 418.140625 L 1440.03125 418.140625 Z M 1440.03125 416.660156 " fill-opacity="1" fill-rule="nonzero"/></g></g></g></g></g></g></g><g mask="url(#0cdc82aebc)"><g transform="matrix(1, 0, 0, 1, 0, 417)"><g clip-path="url(#927bba38ff)"><g clip-path="url(#07fb157c3b)"><g transform="matrix(1, 0, 0, 1, 0, 0.000000000000056843)"><g clip-path="url(#1a190b3cf4)"><g clip-path="url(#be13a0e144)"><path fill="#221f1f" d="M 480.03125 2.511719 L 0 2.511719 L 0 1.027344 L 480.03125 1.027344 Z M 480.03125 61.09375 L 0 61.09375 L 0 62.578125 L 480.03125 62.578125 Z M 480.03125 121.347656 L 0 121.347656 L 0 122.832031 L 480.03125 122.832031 Z M 480.03125 181.414062 L 0 181.414062 L 0 182.898438 L 480.03125 182.898438 Z M 480.03125 241.484375 L 0 241.484375 L 0 242.964844 L 480.03125 242.964844 Z M 480.03125 301.734375 L 0 301.734375 L 0 303.21875 L 480.03125 303.21875 Z M 480.03125 361.804688 L 0 361.804688 L 0 363.285156 L 480.03125 363.285156 Z M 480.03125 422.058594 L 0 422.058594 L 0 423.539062 L 480.03125 423.539062 Z M 480.03125 422.058594 " fill-opacity="1" fill-rule="nonzero"/></g><g clip-path="url(#92d622e128)"><path fill="#221f1f" d="M 960.03125 2.511719 L 480 2.511719 L 480 1.027344 L 960.03125 1.027344 Z M 960.03125 61.09375 L 480 61.09375 L 480 62.578125 L 960.03125 62.578125 Z M 960.03125 121.347656 L 480 121.347656 L 480 122.832031 L 960.03125 122.832031 Z M 960.03125 181.414062 L 480 181.414062 L 480 182.898438 L 960.03125 182.898438 Z M 960.03125 241.484375 L 480 241.484375 L 480 242.964844 L 960.03125 242.964844 Z M 960.03125 301.734375 L 480 301.734375 L 480 303.21875 L 960.03125 303.21875 Z M 960.03125 361.804688 L 480 361.804688 L 480 363.285156 L 960.03125 363.285156 Z M 960.03125 422.058594 L 480 422.058594 L 480 423.539062 L 960.03125 423.539062 Z M 960.03125 422.058594 " fill-opacity="1" fill-rule="nonzero"/></g><g clip-path="url(#405efb984c)"><path fill="#221f1f" d="M 1440.03125 2.511719 L 960 2.511719 L 960 1.027344 L 1440.03125 1.027344 Z M 1440.03125 61.09375 L 960 61.09375 L 960 62.578125 L 1440.03125 62.578125 Z M 1440.03125 121.347656 L 960 121.347656 L 960 122.832031 L 1440.03125 122.832031 Z M 1440.03125 181.414062 L 960 181.414062 L 960 182.898438 L 1440.03125 182.898438 Z M 1440.03125 241.484375 L 960 241.484375 L 960 242.964844 L 1440.03125 242.964844 Z M 1440.03125 301.734375 L 960 301.734375 L 960 303.21875 L 1440.03125 303.21875 Z M 1440.03125 361.804688 L 960 361.804688 L 960 363.285156 L 1440.03125 363.285156 Z M 1440.03125 422.058594 L 960 422.058594 L 960 423.539062 L 1440.03125 423.539062 Z M 1440.03125 422.058594 " fill-opacity="1" fill-rule="nonzero"/></g></g></g></g></g></g></g></svg>